<svg width="34.000000" height="28.000000" viewBox="0 0 34 28" fill="none" xmlns="http://www.w3.org/2000/svg" xmlns:xlink="http://www.w3.org/1999/xlink">
	<desc>
			Created with Pixso.
	</desc>
	<defs>
		<filter id="filter_18_441_dd" x="0.000000" y="0.000000" width="34.000000" height="28.000000" filterUnits="userSpaceOnUse" color-interpolation-filters="sRGB">
			<feFlood flood-opacity="0" result="BackgroundImageFix"/>
			<feColorMatrix in="SourceAlpha" type="matrix" values="0 0 0 0 0 0 0 0 0 0 0 0 0 0 0 0 0 0 127 0" result="hardAlpha"/>
			<feOffset dx="0" dy="4"/>
			<feGaussianBlur stdDeviation="1.33333"/>
			<feComposite in2="hardAlpha" operator="out" k2="-1" k3="1"/>
			<feColorMatrix type="matrix" values="0 0 0 0 0 0 0 0 0 0 0 0 0 0 0 0 0 0 0.25 0"/>
			<feBlend mode="normal" in2="BackgroundImageFix" result="effect_dropShadow_1"/>
			<feBlend mode="normal" in="SourceGraphic" in2="effect_dropShadow_1" result="shape"/>
		</filter>
		<clipPath id="clip18_441">
			<rect id="logos:mastercard" width="26.000000" height="20.000000" transform="translate(4.000000 0.000000)" fill="white" fill-opacity="0"/>
		</clipPath>
	</defs>
	<g filter="url(#filter_18_441_dd)">
		<rect id="logos:mastercard" width="26.000000" height="20.000000" transform="translate(4.000000 0.000000)" fill="#FFFFFF" fill-opacity="0"/>
		<g clip-path="url(#clip18_441)">
			<path id="Vector" d="M8.72 19.9L8.72 18.57C8.72 18.06 8.41 17.73 7.87 17.73C7.61 17.73 7.32 17.82 7.12 18.11C6.96 17.87 6.74 17.73 6.4 17.73C6.18 17.73 5.96 17.8 5.78 18.04L5.78 17.78L5.31 17.78L5.31 19.9L5.78 19.9L5.78 18.73C5.78 18.35 5.98 18.17 6.29 18.17C6.6 18.17 6.76 18.37 6.76 18.73L6.76 19.9L7.23 19.9L7.23 18.73C7.23 18.35 7.45 18.17 7.74 18.17C8.05 18.17 8.21 18.37 8.21 18.73L8.21 19.9L8.72 19.9ZM15.66 17.78L14.9 17.78L14.9 17.14L14.43 17.14L14.43 17.78L14.01 17.78L14.01 18.2L14.43 18.2L14.43 19.17C14.43 19.65 14.63 19.94 15.17 19.94C15.37 19.94 15.59 19.87 15.74 19.79L15.61 19.39C15.48 19.48 15.32 19.5 15.21 19.5C14.99 19.5 14.9 19.37 14.9 19.15L14.9 18.2L15.66 18.2L15.66 17.78ZM19.62 17.73C19.36 17.73 19.18 17.87 19.07 18.04L19.07 17.78L18.6 17.78L18.6 19.9L19.07 19.9L19.07 18.7C19.07 18.35 19.22 18.15 19.51 18.15C19.6 18.15 19.71 18.17 19.8 18.2L19.94 17.76C19.85 17.73 19.71 17.73 19.62 17.73L19.62 17.73ZM13.63 17.95C13.4 17.8 13.09 17.73 12.76 17.73C12.22 17.73 11.87 18 11.87 18.42C11.87 18.77 12.13 18.97 12.6 19.04L12.82 19.06C13.07 19.1 13.2 19.17 13.2 19.28C13.2 19.43 13.02 19.54 12.71 19.54C12.4 19.54 12.16 19.43 12 19.32L11.78 19.68C12.02 19.85 12.36 19.94 12.69 19.94C13.31 19.94 13.67 19.65 13.67 19.26C13.67 18.88 13.38 18.68 12.94 18.62L12.71 18.59C12.51 18.57 12.36 18.53 12.36 18.4C12.36 18.24 12.51 18.15 12.76 18.15C13.02 18.15 13.29 18.26 13.43 18.33L13.63 17.95ZM26.07 17.73C25.8 17.73 25.62 17.87 25.51 18.04L25.51 17.78L25.04 17.78L25.04 19.9L25.51 19.9L25.51 18.7C25.51 18.35 25.67 18.15 25.96 18.15C26.05 18.15 26.16 18.17 26.25 18.2L26.38 17.76C26.29 17.73 26.16 17.73 26.07 17.73ZM20.09 18.84C20.09 19.48 20.54 19.94 21.23 19.94C21.54 19.94 21.76 19.87 21.99 19.7L21.76 19.32C21.59 19.45 21.41 19.52 21.21 19.52C20.83 19.52 20.56 19.26 20.56 18.84C20.56 18.44 20.83 18.17 21.21 18.15C21.41 18.15 21.59 18.22 21.76 18.35L21.99 17.98C21.76 17.8 21.54 17.73 21.23 17.73C20.54 17.73 20.09 18.2 20.09 18.84ZM24.42 18.84L24.42 17.78L23.95 17.78L23.95 18.04C23.79 17.84 23.57 17.73 23.28 17.73C22.68 17.73 22.21 18.2 22.21 18.84C22.21 19.48 22.68 19.94 23.28 19.94C23.59 19.94 23.82 19.83 23.95 19.63L23.95 19.9L24.42 19.9L24.42 18.84ZM22.7 18.84C22.7 18.46 22.95 18.15 23.35 18.15C23.73 18.15 23.99 18.44 23.99 18.84C23.99 19.21 23.73 19.52 23.35 19.52C22.95 19.5 22.7 19.21 22.7 18.84ZM17.1 17.73C16.48 17.73 16.03 18.17 16.03 18.84C16.03 19.5 16.48 19.94 17.13 19.94C17.44 19.94 17.75 19.85 18 19.65L17.77 19.32C17.6 19.45 17.37 19.54 17.15 19.54C16.86 19.54 16.57 19.41 16.5 19.04L18.09 19.04L18.09 18.86C18.11 18.17 17.71 17.73 17.1 17.73ZM17.1 18.13C17.39 18.13 17.6 18.31 17.64 18.64L16.53 18.64C16.57 18.35 16.77 18.13 17.1 18.13ZM28.72 18.84L28.72 16.94L28.25 16.94L28.25 18.04C28.1 17.84 27.87 17.73 27.58 17.73C26.98 17.73 26.51 18.2 26.51 18.84C26.51 19.48 26.98 19.94 27.58 19.94C27.9 19.94 28.12 19.83 28.25 19.63L28.25 19.9L28.72 19.9L28.72 18.84ZM27 18.84C27 18.46 27.25 18.15 27.65 18.15C28.03 18.15 28.3 18.44 28.3 18.84C28.3 19.21 28.03 19.52 27.65 19.52C27.25 19.5 27 19.21 27 18.84ZM11.35 18.84L11.35 17.78L10.88 17.78L10.88 18.04C10.73 17.84 10.51 17.73 10.22 17.73C9.61 17.73 9.15 18.2 9.15 18.84C9.15 19.48 9.61 19.94 10.22 19.94C10.53 19.94 10.75 19.83 10.88 19.63L10.88 19.9L11.35 19.9L11.35 18.84ZM9.61 18.84C9.61 18.46 9.86 18.15 10.26 18.15C10.64 18.15 10.91 18.44 10.91 18.84C10.91 19.21 10.64 19.52 10.26 19.52C9.86 19.5 9.61 19.21 9.61 18.84Z" fill="#151618" fill-opacity="1.000000" fill-rule="nonzero"/>
			<path id="Vector" d="M13.47 1.69L20.49 1.69L20.49 14.18L13.47 14.18L13.47 1.69Z" fill="#FF5F00" fill-opacity="1.000000" fill-rule="nonzero"/>
			<path id="Vector" d="M13.92 7.94C13.92 5.4 15.12 3.15 16.97 1.69C15.61 0.63 13.89 0 12.02 0C7.58 0 4 3.55 4 7.94C4 12.33 7.58 15.88 12.02 15.88C13.89 15.88 15.61 15.24 16.97 14.18C15.12 12.75 13.92 10.47 13.92 7.94Z" fill="#EB001B" fill-opacity="1.000000" fill-rule="nonzero"/>
			<path id="Vector" d="M29.97 7.94C29.97 12.33 26.38 15.88 21.94 15.88C20.07 15.88 18.35 15.24 16.99 14.18C18.87 12.73 20.05 10.47 20.05 7.94C20.05 5.4 18.84 3.15 16.99 1.69C18.35 0.63 20.07 0 21.94 0C26.38 0 29.97 3.57 29.97 7.94Z" fill="#F79E1B" fill-opacity="1.000000" fill-rule="nonzero"/>
		</g>
	</g>
</svg>
